<svg width="18" height="23" viewBox="0 0 18 23" fill="none" xmlns="http://www.w3.org/2000/svg">
<path d="M17 21.625V19.375C17 18.1815 16.5786 17.0369 15.8284 16.193C15.0783 15.3491 14.0609 14.875 13 14.875H5C3.93913 14.875 2.92172 15.3491 2.17157 16.193C1.42143 17.0369 1 18.1815 1 19.375V21.625" stroke="black" stroke-opacity="0.7" stroke-width="2" stroke-linecap="round" stroke-linejoin="round"/>
<path d="M9 10.375C11.2091 10.375 13 8.36028 13 5.875C13 3.38972 11.2091 1.375 9 1.375C6.79086 1.375 5 3.38972 5 5.875C5 8.36028 6.79086 10.375 9 10.375Z" stroke="black" stroke-opacity="0.7" stroke-width="2" stroke-linecap="round" stroke-linejoin="round"/>
<line x1="1" y1="21.75" x2="17" y2="21.75" stroke="#4D4D4D" stroke-width="2"/>
</svg>
