<svg width="99" height="36" viewBox="0 0 99 36" fill="none" xmlns="http://www.w3.org/2000/svg">
<path d="M0 36V0H87.7778L99 20L87.7778 36H0Z" fill="#FE1701"/>
<path d="M90 18C90 20.2091 88.2091 22 86 22C83.7909 22 82 20.2091 82 18C82 15.7909 83.7909 14 86 14C88.2091 14 90 15.7909 90 18Z" fill="white"/>
<path d="M8.14795 12.5181C8.18604 12.3065 8.16911 12.1266 8.09717 11.9785C8.02946 11.8304 7.9279 11.7056 7.79248 11.604C7.65706 11.5024 7.5026 11.4157 7.3291 11.3438C7.1556 11.2718 6.98844 11.2041 6.82764 11.1406C6.49756 11.0137 6.17171 10.8677 5.8501 10.7026C5.53271 10.5376 5.24495 10.3429 4.98682 10.1187C4.72868 9.89437 4.52555 9.632 4.37744 9.33154C4.23356 9.02686 4.17432 8.67139 4.19971 8.26514C4.22933 7.80387 4.3584 7.40609 4.58691 7.07178C4.81966 6.73324 5.118 6.45605 5.48193 6.24023C5.84587 6.02441 6.2373 5.86784 6.65625 5.77051C7.07943 5.66895 7.49626 5.6224 7.90674 5.63086C8.48226 5.63932 8.99642 5.75781 9.44922 5.98633C9.90625 6.21484 10.2638 6.54281 10.522 6.97021C10.7843 7.39339 10.9092 7.9012 10.8965 8.49365H8.89697C8.90967 8.23551 8.87581 8.01123 8.79541 7.8208C8.71924 7.63037 8.5944 7.48226 8.4209 7.37646C8.2474 7.27067 8.02734 7.21566 7.76074 7.21143C7.53223 7.20296 7.30583 7.23682 7.08154 7.31299C6.85726 7.38916 6.66471 7.50765 6.50391 7.66846C6.3431 7.82503 6.23942 8.02816 6.19287 8.27783C6.16325 8.46403 6.19076 8.62695 6.27539 8.7666C6.36426 8.90202 6.48486 9.01839 6.63721 9.11572C6.79378 9.20882 6.95671 9.28923 7.12598 9.35693C7.29948 9.42464 7.45394 9.48177 7.58936 9.52832C7.93213 9.65951 8.26221 9.81185 8.57959 9.98535C8.9012 10.1546 9.18473 10.3577 9.43018 10.5947C9.67985 10.8275 9.87028 11.1004 10.0015 11.4136C10.1326 11.7267 10.1855 12.0885 10.1602 12.499C10.1263 12.973 9.99935 13.3771 9.7793 13.7114C9.55924 14.0457 9.27783 14.3187 8.93506 14.5303C8.59229 14.7419 8.21354 14.8963 7.79883 14.9937C7.38835 15.091 6.97152 15.1375 6.54834 15.1333C6.08285 15.1248 5.64486 15.0529 5.23438 14.9175C4.82812 14.7821 4.47266 14.5832 4.16797 14.3208C3.86328 14.0584 3.6263 13.7389 3.45703 13.3623C3.29199 12.9814 3.21582 12.5435 3.22852 12.0483L5.24707 12.0547C5.23014 12.3001 5.24707 12.5181 5.29785 12.7085C5.35286 12.8947 5.4375 13.0513 5.55176 13.1782C5.67025 13.3009 5.82048 13.394 6.00244 13.4575C6.18864 13.521 6.40869 13.5527 6.6626 13.5527C6.88688 13.557 7.10482 13.5231 7.31641 13.4512C7.53223 13.3792 7.71419 13.2671 7.8623 13.1147C8.01465 12.9624 8.10986 12.7635 8.14795 12.5181ZM17.4219 5.75781H19.4341L18.3994 11.8198C18.2979 12.5181 18.0693 13.1169 17.7139 13.6162C17.3584 14.1156 16.9014 14.4964 16.3428 14.7588C15.7884 15.0169 15.1621 15.1418 14.4639 15.1333C13.8079 15.1206 13.2367 14.981 12.75 14.7144C12.2676 14.4435 11.9058 14.0627 11.6646 13.5718C11.4276 13.0809 11.3472 12.499 11.4233 11.8262L12.458 5.75781H14.4766L13.4482 11.8325C13.4144 12.133 13.4207 12.4102 13.4673 12.6641C13.5181 12.918 13.6323 13.1232 13.8101 13.2798C13.9878 13.4364 14.2459 13.5189 14.5845 13.5273C14.9442 13.54 15.2489 13.4744 15.4985 13.3306C15.7482 13.1867 15.945 12.9836 16.0889 12.7212C16.237 12.4588 16.3364 12.1605 16.3872 11.8262L17.4219 5.75781ZM23.4648 11.7944L21.0972 11.7881L21.3765 10.1821L23.5347 10.1885C23.8309 10.1885 24.1017 10.1356 24.3472 10.0298C24.5926 9.92399 24.7936 9.76953 24.9502 9.56641C25.111 9.36328 25.2126 9.10938 25.2549 8.80469C25.2972 8.55078 25.2866 8.31803 25.2231 8.10645C25.1639 7.89486 25.0518 7.72347 24.8867 7.59229C24.7217 7.45687 24.5016 7.38281 24.2266 7.37012L22.6016 7.36377L21.2749 15H19.2627L20.8623 5.75781L24.29 5.76416C24.8867 5.77686 25.4199 5.90592 25.8896 6.15137C26.3636 6.39681 26.7275 6.7417 26.9814 7.18604C27.2396 7.63037 27.3433 8.16569 27.2925 8.79199C27.2375 9.47331 27.0238 10.0361 26.6514 10.4805C26.2832 10.9248 25.8177 11.2549 25.2549 11.4707C24.6921 11.6865 24.0954 11.7944 23.4648 11.7944ZM33.8242 13.4004L33.5449 15H28.7588L29.0381 13.4004H33.8242ZM31.0566 5.75781L29.4507 15H27.4385L29.0381 5.75781H31.0566ZM33.8813 9.47754L33.6147 11.0264H29.4443L29.7173 9.47754H33.8813ZM35.1509 5.75781L34.8716 7.36377H30.0791L30.3647 5.75781H35.1509ZM36.1221 5.75781L39.4609 5.76416C40.0238 5.77262 40.5379 5.8763 41.0034 6.0752C41.4731 6.26986 41.8392 6.56608 42.1016 6.96387C42.3639 7.36165 42.474 7.87158 42.4316 8.49365C42.3936 8.99723 42.2751 9.42464 42.0762 9.77588C41.8815 10.1229 41.6191 10.4191 41.2891 10.6646C40.959 10.9058 40.5739 11.1174 40.1338 11.2993L39.4165 11.6611H36.376L36.6489 10.0552L38.731 10.0679C39.0229 10.0636 39.2874 10.0065 39.5244 9.89648C39.7614 9.78646 39.9561 9.62988 40.1084 9.42676C40.2607 9.2194 40.356 8.96549 40.394 8.66504C40.4321 8.41536 40.4194 8.19531 40.356 8.00488C40.2967 7.81445 40.1846 7.66423 40.0195 7.5542C39.8587 7.44417 39.6514 7.38281 39.3975 7.37012L37.8613 7.36377L36.5347 15H34.5225L36.1221 5.75781ZM39.5308 15L38.2295 10.8931L40.2671 10.8867L41.6826 14.8984L41.6763 15H39.5308ZM8.14795 25.5181C8.18604 25.3065 8.16911 25.1266 8.09717 24.9785C8.02946 24.8304 7.9279 24.7056 7.79248 24.604C7.65706 24.5024 7.5026 24.4157 7.3291 24.3438C7.1556 24.2718 6.98844 24.2041 6.82764 24.1406C6.49756 24.0137 6.17171 23.8677 5.8501 23.7026C5.53271 23.5376 5.24495 23.3429 4.98682 23.1187C4.72868 22.8944 4.52555 22.632 4.37744 22.3315C4.23356 22.0269 4.17432 21.6714 4.19971 21.2651C4.22933 20.8039 4.3584 20.4061 4.58691 20.0718C4.81966 19.7332 5.118 19.4561 5.48193 19.2402C5.84587 19.0244 6.2373 18.8678 6.65625 18.7705C7.07943 18.6689 7.49626 18.6224 7.90674 18.6309C8.48226 18.6393 8.99642 18.7578 9.44922 18.9863C9.90625 19.2148 10.2638 19.5428 10.522 19.9702C10.7843 20.3934 10.9092 20.9012 10.8965 21.4937H8.89697C8.90967 21.2355 8.87581 21.0112 8.79541 20.8208C8.71924 20.6304 8.5944 20.4823 8.4209 20.3765C8.2474 20.2707 8.02734 20.2157 7.76074 20.2114C7.53223 20.203 7.30583 20.2368 7.08154 20.313C6.85726 20.3892 6.66471 20.5076 6.50391 20.6685C6.3431 20.825 6.23942 21.0282 6.19287 21.2778C6.16325 21.464 6.19076 21.627 6.27539 21.7666C6.36426 21.902 6.48486 22.0184 6.63721 22.1157C6.79378 22.2088 6.95671 22.2892 7.12598 22.3569C7.29948 22.4246 7.45394 22.4818 7.58936 22.5283C7.93213 22.6595 8.26221 22.8118 8.57959 22.9854C8.9012 23.1546 9.18473 23.3577 9.43018 23.5947C9.67985 23.8275 9.87028 24.1004 10.0015 24.4136C10.1326 24.7267 10.1855 25.0885 10.1602 25.499C10.1263 25.973 9.99935 26.3771 9.7793 26.7114C9.55924 27.0457 9.27783 27.3187 8.93506 27.5303C8.59229 27.7419 8.21354 27.8963 7.79883 27.9937C7.38835 28.091 6.97152 28.1375 6.54834 28.1333C6.08285 28.1248 5.64486 28.0529 5.23438 27.9175C4.82812 27.7821 4.47266 27.5832 4.16797 27.3208C3.86328 27.0584 3.6263 26.7389 3.45703 26.3623C3.29199 25.9814 3.21582 25.5435 3.22852 25.0483L5.24707 25.0547C5.23014 25.3001 5.24707 25.5181 5.29785 25.7085C5.35286 25.8947 5.4375 26.0513 5.55176 26.1782C5.67025 26.3009 5.82048 26.394 6.00244 26.4575C6.18864 26.521 6.40869 26.5527 6.6626 26.5527C6.88688 26.557 7.10482 26.5231 7.31641 26.4512C7.53223 26.3792 7.71419 26.2671 7.8623 26.1147C8.01465 25.9624 8.10986 25.7635 8.14795 25.5181ZM17.2949 26.4004L17.0156 28H12.2295L12.5088 26.4004H17.2949ZM14.5273 18.7578L12.9214 28H10.9092L12.5088 18.7578H14.5273ZM17.3521 22.4775L17.0854 24.0264H12.915L13.188 22.4775H17.3521ZM18.6216 18.7578L18.3423 20.3638H13.5498L13.8354 18.7578H18.6216ZM22.1953 24.7944L19.8276 24.7881L20.1069 23.1821L22.2651 23.1885C22.5614 23.1885 22.8322 23.1356 23.0776 23.0298C23.3231 22.924 23.5241 22.7695 23.6807 22.5664C23.8415 22.3633 23.943 22.1094 23.9854 21.8047C24.0277 21.5508 24.0171 21.318 23.9536 21.1064C23.8944 20.8949 23.7822 20.7235 23.6172 20.5923C23.4521 20.4569 23.2321 20.3828 22.957 20.3701L21.332 20.3638L20.0054 28H17.9932L19.5928 18.7578L23.0205 18.7642C23.6172 18.7769 24.1504 18.9059 24.6201 19.1514C25.0941 19.3968 25.458 19.7417 25.7119 20.186C25.9701 20.6304 26.0737 21.1657 26.0229 21.792C25.9679 22.4733 25.7542 23.0361 25.3818 23.4805C25.0137 23.9248 24.5482 24.2549 23.9854 24.4707C23.4225 24.6865 22.8258 24.7944 22.1953 24.7944ZM31.958 18.7578L30.3584 28H28.3398L29.9458 18.7578H31.958ZM34.6875 18.7578L34.4082 20.3638H26.9878L27.2734 18.7578H34.6875ZM40.4385 26.4004L40.1592 28H35.373L35.6523 26.4004H40.4385ZM37.6709 18.7578L36.0649 28H34.0527L35.6523 18.7578H37.6709ZM40.4956 22.4775L40.229 24.0264H36.0586L36.3315 22.4775H40.4956ZM41.7651 18.7578L41.4858 20.3638H36.6934L36.979 18.7578H41.7651ZM43.7329 18.7578H45.3389L46.3418 25.3467L49.6362 18.7578H51.3755L46.6274 28H45.2754L43.7329 18.7578ZM42.7363 18.7578H44.4438L43.5552 25.6958L43.1489 28H41.1367L42.7363 18.7578ZM50.5884 18.7578H52.3022L50.7026 28H48.6777L49.1094 25.5244L50.5884 18.7578ZM56.5488 24.0073H54.1494L54.3843 22.6235L56.187 22.6299C56.4536 22.6299 56.7096 22.596 56.9551 22.5283C57.2048 22.4564 57.4163 22.3379 57.5898 22.1729C57.7633 22.0036 57.8713 21.7687 57.9136 21.4683C57.9559 21.1974 57.9326 20.9837 57.8438 20.8271C57.7591 20.6663 57.6237 20.5521 57.4375 20.4844C57.2555 20.4124 57.0397 20.3743 56.79 20.3701L55.5205 20.3638L54.1938 28H52.1816L53.7812 18.7578L56.8535 18.7642C57.2513 18.7684 57.6406 18.8149 58.0215 18.9038C58.4066 18.9884 58.7493 19.126 59.0498 19.3164C59.3503 19.5026 59.5851 19.7544 59.7544 20.0718C59.9237 20.3892 59.9935 20.7827 59.9639 21.2524C59.9342 21.7603 59.7882 22.175 59.5259 22.4966C59.2677 22.8182 58.9355 23.0573 58.5293 23.2139C58.1273 23.3704 57.6935 23.4593 57.228 23.4805L56.5488 24.0073ZM55.7998 28H52.8989L53.9082 26.4004L55.8633 26.4067C56.1257 26.4025 56.3711 26.3581 56.5996 26.2734C56.8281 26.1888 57.0186 26.0576 57.1709 25.8799C57.3275 25.7021 57.4269 25.4779 57.4692 25.207C57.5073 24.9701 57.501 24.7648 57.4502 24.5913C57.3994 24.4178 57.3 24.2824 57.1519 24.1851C57.0037 24.0835 56.8091 24.0264 56.5679 24.0137L54.6572 24.0073L54.9111 22.6235L57.0439 22.6299L57.3931 23.1694C57.812 23.1864 58.1802 23.2731 58.4976 23.4297C58.8192 23.5863 59.0646 23.8169 59.2339 24.1216C59.4074 24.422 59.4793 24.7902 59.4497 25.2261C59.4074 25.9032 59.2106 26.4448 58.8594 26.8511C58.5124 27.2573 58.068 27.5514 57.5264 27.7334C56.9847 27.9154 56.4092 28.0042 55.7998 28ZM66.667 26.4004L66.3877 28H61.6016L61.8809 26.4004H66.667ZM63.8994 18.7578L62.2935 28H60.2812L61.8809 18.7578H63.8994ZM66.7241 22.4775L66.4575 24.0264H62.2871L62.5601 22.4775H66.7241ZM67.9937 18.7578L67.7144 20.3638H62.9219L63.2075 18.7578H67.9937ZM68.9648 18.7578L72.3037 18.7642C72.8665 18.7726 73.3807 18.8763 73.8462 19.0752C74.3159 19.2699 74.682 19.5661 74.9443 19.9639C75.2067 20.3617 75.3167 20.8716 75.2744 21.4937C75.2363 21.9972 75.1178 22.4246 74.9189 22.7759C74.7243 23.1229 74.4619 23.4191 74.1318 23.6646C73.8018 23.9058 73.4167 24.1174 72.9766 24.2993L72.2593 24.6611H69.2188L69.4917 23.0552L71.5737 23.0679C71.8657 23.0636 72.1302 23.0065 72.3672 22.8965C72.6042 22.7865 72.7988 22.6299 72.9512 22.4268C73.1035 22.2194 73.1987 21.9655 73.2368 21.665C73.2749 21.4154 73.2622 21.1953 73.1987 21.0049C73.1395 20.8145 73.0273 20.6642 72.8623 20.5542C72.7015 20.4442 72.4941 20.3828 72.2402 20.3701L70.7041 20.3638L69.3774 28H67.3652L68.9648 18.7578ZM72.3735 28L71.0723 23.8931L73.1099 23.8867L74.5254 27.8984L74.519 28H72.3735Z" fill="white"/>
</svg>
