<svg width="18" height="14" viewBox="0 0 18 14" fill="none" xmlns="http://www.w3.org/2000/svg">
<g clip-path="url(#clip0_13_11)">
<path fill-rule="evenodd" clip-rule="evenodd" d="M-1.12671 0H19.1233V14H-1.12671V0Z" fill="#0C590B"/>
<path fill-rule="evenodd" clip-rule="evenodd" d="M-1.12671 0H3.94897V14H-1.12671V0Z" fill="white"/>
<path fill-rule="evenodd" clip-rule="evenodd" d="M12.0226 6.16323L11.1999 5.98276L10.7675 6.72925L10.6779 5.86519L9.86047 5.66831L10.6251 5.31284L10.5539 4.44604L11.1182 5.09136L11.8907 4.75229L11.4715 5.50698L12.0252 6.16323H12.0226Z" fill="white"/>
<path fill-rule="evenodd" clip-rule="evenodd" d="M12.3311 8.36719C12.1556 8.76427 11.9062 9.12147 11.5972 9.41824C11.2881 9.715 10.9255 9.94548 10.5303 10.0964C10.135 10.2474 9.71491 10.3158 9.29408 10.2978C8.87324 10.2798 8.45999 10.1756 8.07809 9.99141C7.30327 9.61938 6.70269 8.94339 6.40847 8.11215C6.11425 7.28091 6.1505 6.36251 6.50924 5.55898C6.6874 5.14593 6.94694 4.77612 7.27117 4.47331C7.5954 4.17051 7.97714 3.94142 8.39186 3.80078C8.28329 3.89453 8.17944 3.99401 8.08073 4.09883C7.5663 4.68964 7.29322 5.46453 7.31905 6.2601C7.34489 7.05568 7.66763 7.80976 8.21922 8.36333C8.77081 8.91691 9.50814 9.22673 10.2757 9.22744C11.0433 9.22816 11.7812 8.91973 12.3338 8.36719H12.3311Z" fill="white"/>
</g>
<defs>
<clipPath id="clip0_13_11">
<rect width="18" height="14" fill="white"/>
</clipPath>
</defs>
</svg>
